<svg xmlns="http://www.w3.org/2000/svg" width="32" height="32" id="holy"><path d="M7.559 3C6.719 3 6 3.662 6 4.5v22.3a.5.5 0 0 0 .01.112c-.002.03-.008.06-.008.09 0 1.098.894 2 1.99 2H24.5a.5.5 0 0 0 .498-.5l.002-.09a.5.5 0 0 0-.334-.473.983.983 0 0 1-.666-.937c0-.445.276-.803.664-.94a.5.5 0 0 0 .336-.47v-.051a.5.5 0 0 0 0-.041v-21c0-.419-.178-.794-.463-1.064A1.595 1.595 0 0 0 23.441 3H7.56zm0 1H23.44c.334 0 .559.23.559.5V25c-5.336 0-10.674.004-16.008.002A.5.5 0 0 0 7.99 25c-.362 0-.697.106-.99.277V4.5c0-.27.225-.5.559-.5zm6.931 4.498a.5.5 0 0 0-.502.502v1.5H12.49a.5.5 0 0 0-.5.5v2a.5.5 0 0 0 .5.5l1.5.002V19a.5.5 0 0 0 .5.5h2a.5.5 0 0 0 .5-.5v-5.498h1.5a.5.5 0 0 0 .502-.502v-2a.5.5 0 0 0-.5-.5h-1.5l-.002-1.502a.5.5 0 0 0-.15-.357.5.5 0 0 0-.35-.143h-2zm1.5 1v1.504a.5.5 0 0 0 .5.5l1.502-.002-.002 1.002h-1.5a.5.5 0 0 0-.5.5V18.5h-1v-5.498a.5.5 0 0 0-.5-.5l-1.5-.002v-1h1.498a.5.5 0 0 0 .5-.5V9.5l1.002-.002zM7.99 26c5.11.002 10.222 0 15.332 0v.002c-.179.299-.322.627-.322 1s.143.7.322.998H7.992a.982.982 0 0 1-.99-1A.5.5 0 0 0 7 27c0-.564.434-1 .99-1z" color="#000" font-family="sans-serif" font-weight="400" overflow="visible" style="line-height:normal;text-indent:0;text-align:start;text-decoration-line:none;text-decoration-style:solid;text-decoration-color:#000;text-transform:none;block-progression:tb;white-space:normal;isolation:auto;mix-blend-mode:normal;solid-color:#000;solid-opacity:1"></path></svg>